<svg width="1512" height="319" viewBox="0 0 1512 319" fill="none" xmlns="http://www.w3.org/2000/svg">
<rect x="-7.83203" y="53.0859" width="75.0731" height="75.0731" rx="8" transform="rotate(45 -7.83203 53.0859)" fill="white" fill-opacity="0.02"/>
<rect x="98.3398" y="53.0859" width="75.0731" height="75.0731" rx="8" transform="rotate(45 98.3398 53.0859)" fill="white" fill-opacity="0.02"/>
<rect x="98.3398" y="159.25" width="75.0731" height="75.0731" rx="8" transform="rotate(45 98.3398 159.25)" fill="white" fill-opacity="0.02"/>
<rect x="-7.83203" y="159.25" width="75.0731" height="75.0731" rx="8" transform="rotate(45 -7.83203 159.25)" fill="white" fill-opacity="0.02"/>
<rect x="410.922" y="46.6499" width="75.0689" height="75.0662" rx="8" transform="rotate(90 410.922 46.6499)" fill="white" fill-opacity="0.02"/>
<rect x="486" y="121.722" width="75.0689" height="75.0662" rx="8" transform="rotate(90 486 121.722)" fill="white" fill-opacity="0.02"/>
<rect x="410.922" y="196.786" width="75.0689" height="75.0662" rx="8" transform="rotate(90 410.922 196.786)" fill="white" fill-opacity="0.02"/>
<rect x="335.871" y="121.722" width="75.0689" height="75.0662" rx="8" transform="rotate(90 335.871 121.722)" fill="white" fill-opacity="0.02"/>
<rect x="648.469" y="53.0859" width="75.0731" height="75.0731" rx="8" transform="rotate(45 648.469 53.0859)" fill="white" fill-opacity="0.02"/>
<rect x="754.641" y="53.0859" width="75.0731" height="75.0731" rx="8" transform="rotate(45 754.641 53.0859)" fill="white" fill-opacity="0.02"/>
<rect x="754.641" y="159.25" width="75.0731" height="75.0731" rx="8" transform="rotate(45 754.641 159.25)" fill="white" fill-opacity="0.02"/>
<rect x="648.469" y="159.25" width="75.0731" height="75.0731" rx="8" transform="rotate(45 648.469 159.25)" fill="white" fill-opacity="0.02"/>
<rect x="1067.23" y="46.6499" width="75.0689" height="75.0662" rx="8" transform="rotate(90 1067.23 46.6499)" fill="white" fill-opacity="0.02"/>
<rect x="1142.3" y="121.722" width="75.0689" height="75.0662" rx="8" transform="rotate(90 1142.3 121.722)" fill="white" fill-opacity="0.02"/>
<rect x="1067.23" y="196.786" width="75.0689" height="75.0662" rx="8" transform="rotate(90 1067.23 196.786)" fill="white" fill-opacity="0.02"/>
<rect x="992.176" y="121.722" width="75.0689" height="75.0662" rx="8" transform="rotate(90 992.176 121.722)" fill="white" fill-opacity="0.02"/>
<rect x="1304.77" y="53.0859" width="75.0731" height="75.0731" rx="8" transform="rotate(45 1304.77 53.0859)" fill="white" fill-opacity="0.02"/>
<rect x="1410.95" y="53.0859" width="75.0731" height="75.0731" rx="8" transform="rotate(45 1410.95 53.0859)" fill="white" fill-opacity="0.02"/>
<rect x="1410.95" y="159.25" width="75.0731" height="75.0731" rx="8" transform="rotate(45 1410.95 159.25)" fill="white" fill-opacity="0.02"/>
<rect x="1304.77" y="159.25" width="75.0731" height="75.0731" rx="8" transform="rotate(45 1304.77 159.25)" fill="white" fill-opacity="0.02"/>
</svg>
